# xmcd
#
# Track frame offsets: 
#        150
#        21114
#        38951
#        65306
#        86786
#        106382
#        127760
#        139018
#        160704
#        181593
#        203597
#
# Disc length: 2927 seconds
#
# Revision: 0
# Processed by: cddbd v1.5.2PL0 Copyright (c) Steve Scherf et al.
# Submitted via: ExactAudioCopy v1.0b3
#
DISCID=830b6d0b
DTITLE=Fiona Boyes - Mookie Brill - Rich DelGrosso - Live From Bluesvi
DTITLE=lle
DYEAR=2008
DGENRE=Blues
TTITLE0=Early In The Morning
TTITLE1=Homegrown Sin
TTITLE2=Hard To Live With
TTITLE3=Smokestack Lightning
TTITLE4=Easy Babe
TTITLE5=Shotgun Blues
TTITLE6=My Baby Left Me
TTITLE7=Good Lord Made You So
TTITLE8=Keep Your Nose Outa My Bizness
TTITLE9=Mercy
TTITLE10=Two Legged Dog
EXTD=
EXTT0=
EXTT1=
EXTT2=
EXTT3=
EXTT4=
EXTT5=
EXTT6=
EXTT7=
EXTT8=
EXTT9=
EXTT10=
PLAYORDER=
